<svg xmlns="http://www.w3.org/2000/svg" aria-hidden="true" style="width:0;height:0;position:absolute;overflow:hidden"><defs><symbol id="icon-hero-btn-svg" viewBox="0 0 16 32"><path fill="#fff" d="m14.02 17.063-8.501 8.498a1.49 1.49 0 0 1-2.119 0l-1.412-1.412c-.272-.27-.44-.645-.44-1.059s.168-.788.44-1.059l6.025-6.027-6.025-6.025c-.272-.271-.44-.645-.44-1.059s.168-.788.44-1.059l1.406-1.426a1.49 1.49 0 0 1 2.119 0l8.5 8.5c.594.587.594 1.538.007 2.126z" style="fill:var(--color1,#fff)"/></symbol><symbol id="icon-pencil" viewBox="0 0 32 32"><path fill="#fff" d="m31.119 8.881-2.881 2.881a.749.749 0 0 1-1.062 0l-6.938-6.938a.749.749 0 0 1 0-1.062L23.119.881c.544-.542 1.294-.877 2.122-.877s1.578.335 2.122.877l3.756 3.756c.544.542.881 1.293.881 2.122s-.337 1.58-.881 2.122zM17.763 6.237 1.351 22.649.025 30.244a1.501 1.501 0 0 0 1.737 1.737l7.594-1.331 16.412-16.411a.75.75 0 0 0 0-1.064l-6.937-6.938a.758.758 0 0 0-1.07 0zM7.756 21.243a.87.87 0 0 1 0-1.237l9.626-9.626a.87.87 0 0 1 1.237 0 .87.87 0 0 1 0 1.238l-9.625 9.625a.87.87 0 0 1-1.238 0zM5.5 26.501h2.999v2.267l-4.03.707-1.944-1.944.706-4.031H5.5v3z" style="fill:var(--color1,#fff)"/></symbol><symbol id="icon-university" viewBox="0 0 32 32"><path fill="#fff" d="M31 8v1a.5.5 0 0 1-.5.5h-1.499v.75a.75.75 0 0 1-.75.75H3.75a.75.75 0 0 1-.75-.75V9.5H1.5A.5.5 0 0 1 1 9V8c0-.207.126-.385.306-.46l.003-.001 14.5-5.5a.49.49 0 0 1 .385.001l-.003-.001 14.501 5.5A.5.5 0 0 1 31 8v.001zm-1.5 19H2.499C1.671 27 1 27.671 1 28.499V29.5a.5.5 0 0 0 .5.5h28.999a.5.5 0 0 0 .5-.5v-1c0-.828-.671-1.499-1.499-1.499zM6 12v12H3.749a.75.75 0 0 0-.75.75V26h26v-1.25a.75.75 0 0 0-.75-.75h-2.251V12h-4v12h-4V12h-4v12H9.999V12H5.998z" style="fill:var(--color1,#fff)"/></symbol><symbol id="icon-book" viewBox="0 0 32 32"><path fill="#fff" d="M22 6a6 6 0 1 0-12 0 6 6 0 0 0 12 0zm-7.401 9.068c-3.708-2.268-9.714-2.894-12.736-3.066C.845 11.944 0 12.719 0 13.695V27.62c0 .896.724 1.643 1.655 1.691 2.729.143 8.251.667 12.066 2.589.585.295 1.28-.107 1.28-.741v-15.38c0-.3-.159-.564-.398-.71l-.004-.002zm15.539-3.065c-3.022.172-9.029.795-12.736 3.066a.85.85 0 0 0-.401.721v15.369c0 .637.697 1.04 1.284.744 3.815-1.92 9.333-2.445 12.061-2.587.931-.048 1.655-.795 1.655-1.691V13.699c0-.976-.847-1.751-1.862-1.693z" style="fill:var(--color1,#fff)"/></symbol><symbol id="icon-logo" viewBox="0 0 41 32"><path fill="#28a745" d="M38.196.196C34.335.417 26.664 1.215 21.928 4.12c-.328.2-.513.557-.513.929v25.676c0 .815.89 1.331 1.64.952 4.872-2.457 11.921-3.128 15.405-3.31 1.19-.062 2.115-1.018 2.115-2.164V2.364c0-1.25-1.081-2.24-2.379-2.168zM18.649 4.121C13.913 1.215 6.24.417 2.381.197c-1.3-.073-2.38.917-2.38 2.167v23.84c0 1.146.925 2.101 2.115 2.164 3.486.183 10.537.854 15.412 3.314.747.377 1.634-.137 1.634-.951V5.03c0-.383-.203-.72-.507-.907l-.005-.003z" style="fill:var(--color2,#28a745)"/></symbol></defs></svg>